<svg width="341" height="225" viewBox="0 0 341 225" fill="none" xmlns="http://www.w3.org/2000/svg">
<line opacity="0.1" x1="12" y1="70" x2="323" y2="70" stroke="#4B5166" stroke-width="2"/>
<line opacity="0.1" x1="12" y1="102" x2="323" y2="102" stroke="#4B5166" stroke-width="2"/>
<line opacity="0.1" x1="12" y1="134" x2="323" y2="134" stroke="#4B5166" stroke-width="2"/>
<line opacity="0.1" x1="12" y1="166" x2="323" y2="166" stroke="#4B5166" stroke-width="2"/>
<line opacity="0.1" x1="12" y1="198" x2="323" y2="198" stroke="#4B5166" stroke-width="2"/>
<path d="M34 178.507C34 170.856 38.3658 163.875 45.2455 160.525L81.2455 142.999C94.5301 136.531 110 146.206 110 160.981V199H34V178.507Z" fill="#C62A50"/>
<path opacity="0.4" d="M52.6274 221.176C55.0957 221.176 56.6631 219.923 56.6631 217.931C56.6631 216.393 55.7549 215.507 53.5356 215.038L52.3857 214.796C51.0161 214.503 50.4668 213.991 50.4668 213.222C50.4668 212.255 51.3823 211.654 52.6201 211.654C53.6748 211.654 54.4805 212.072 54.8394 213.046C55.0078 213.427 55.2495 213.61 55.645 213.61C56.0698 213.61 56.3701 213.332 56.3701 212.907C56.3701 212.753 56.3481 212.628 56.3115 212.526C55.9014 211.112 54.4658 210.255 52.6421 210.255C50.3936 210.255 48.8042 211.5 48.8042 213.31C48.8042 214.833 49.7637 215.814 51.873 216.261L53.0303 216.503C54.4438 216.811 55.0005 217.323 55.0005 218.144C55.0005 219.088 54.041 219.777 52.7007 219.777C51.4775 219.777 50.5181 219.315 50.1885 218.327C50.0273 217.931 49.7856 217.763 49.4121 217.763C48.9653 217.763 48.6724 218.07 48.6724 218.546C48.6724 218.722 48.709 218.898 48.7603 219.059C49.1704 220.29 50.5767 221.176 52.6274 221.176ZM58.4062 219.154C58.4062 220.429 59.0654 221.066 60.3618 221.066H60.4424C61.2188 221.066 61.585 220.824 61.585 220.348C61.585 219.975 61.3579 219.792 60.9038 219.748L60.7793 219.74C60.208 219.696 59.9956 219.418 59.9956 218.803V214.547H60.8965C61.3066 214.547 61.5557 214.313 61.5557 213.925C61.5557 213.537 61.3066 213.295 60.8965 213.295H59.9956V212.152C59.9956 211.647 59.6807 211.31 59.2046 211.31C58.7212 211.31 58.4062 211.647 58.4062 212.152V213.295H57.8496C57.4395 213.295 57.1904 213.529 57.1904 213.925C57.1904 214.313 57.4395 214.547 57.8496 214.547H58.4062V219.154ZM64.9028 221.132C65.9062 221.132 66.8877 220.59 67.3345 219.733H67.3711V220.385C67.3857 220.854 67.686 221.139 68.1255 221.139C68.5723 221.139 68.8872 220.839 68.8872 220.341V215.69C68.8872 214.145 67.6934 213.156 65.8257 213.156C64.4414 213.156 63.2769 213.712 62.874 214.584C62.7788 214.76 62.7349 214.936 62.7349 215.097C62.7349 215.492 63.0205 215.756 63.416 215.756C63.6943 215.756 63.8994 215.653 64.0605 215.419C64.5 214.716 65.0054 214.445 65.7671 214.445C66.7339 214.445 67.3125 214.958 67.3125 215.814V216.408L65.1958 216.532C63.3721 216.635 62.332 217.462 62.332 218.81C62.332 220.194 63.394 221.132 64.9028 221.132ZM65.335 219.879C64.4927 219.879 63.9287 219.44 63.9287 218.766C63.9287 218.107 64.4634 217.689 65.4082 217.624L67.3125 217.506V218.114C67.3125 219.118 66.4409 219.879 65.335 219.879ZM73.6553 223.9C75.9478 223.922 77.3467 222.692 77.3467 220.788V213.969C77.3467 213.456 77.0098 213.156 76.5557 213.156C76.1016 213.156 75.7573 213.456 75.7573 213.969V214.591H75.728C75.2593 213.72 74.4097 213.17 73.3184 213.17C71.3262 213.17 70.0811 214.672 70.0811 217.082C70.0811 219.462 71.3408 220.978 73.2817 220.978C74.3804 220.978 75.2886 220.429 75.7207 219.594H75.7573V220.817C75.7573 221.894 74.9736 222.626 73.6846 222.611C72.9302 222.597 72.3882 222.311 71.7583 221.652C71.5459 221.439 71.3921 221.359 71.1504 221.359C70.7476 221.359 70.4766 221.623 70.4766 221.989C70.4766 222.172 70.5205 222.333 70.623 222.509C71.1504 223.344 72.2563 223.886 73.6553 223.9ZM73.7065 219.689C72.4907 219.689 71.6997 218.7 71.6997 217.089C71.6997 215.485 72.4907 214.474 73.7065 214.474C74.9443 214.474 75.7646 215.514 75.7646 217.096C75.7646 218.678 74.9443 219.689 73.7065 219.689ZM82.2466 221.146C83.6821 221.146 84.8027 220.568 85.3081 219.557C85.374 219.403 85.418 219.257 85.418 219.132C85.418 218.737 85.1396 218.488 84.7588 218.488C84.5317 218.488 84.3706 218.568 84.2021 218.766C83.6162 219.564 83.0742 219.865 82.21 219.865C80.9502 219.865 80.1592 218.986 80.1592 217.58V217.543H84.8174C85.3081 217.543 85.6011 217.25 85.6011 216.737C85.6011 214.635 84.1875 213.156 82.1367 213.156C79.9541 213.156 78.5625 214.738 78.5625 217.184C78.5625 219.674 79.9248 221.146 82.2466 221.146ZM80.1665 216.437C80.2471 215.236 81.0381 214.43 82.1294 214.43C83.228 214.43 83.9824 215.229 84.019 216.437H80.1665ZM93.3867 221.139C93.8555 221.139 94.1851 220.802 94.1851 220.304V211.208C94.1851 210.636 93.8408 210.292 93.2622 210.292C92.9106 210.292 92.6689 210.358 92.2222 210.673L90.0249 212.233C89.7173 212.445 89.6147 212.636 89.6147 212.907C89.6147 213.28 89.8711 213.537 90.23 213.537C90.4131 213.537 90.5596 213.485 90.7207 213.368L92.5444 212.094H92.5811V220.304C92.5811 220.802 92.9106 221.139 93.3867 221.139Z" fill="#4B5166"/>
<path d="M130 146.442C130 138.313 134.92 130.993 142.446 127.923L178.446 113.239C191.601 107.873 206 117.55 206 131.758V199H130V146.442Z" fill="#53BDE0"/>
<path opacity="0.4" d="M147.712 221.176C150.18 221.176 151.748 219.923 151.748 217.931C151.748 216.393 150.839 215.507 148.62 215.038L147.47 214.796C146.101 214.503 145.551 213.991 145.551 213.222C145.551 212.255 146.467 211.654 147.705 211.654C148.759 211.654 149.565 212.072 149.924 213.046C150.092 213.427 150.334 213.61 150.729 213.61C151.154 213.61 151.455 213.332 151.455 212.907C151.455 212.753 151.433 212.628 151.396 212.526C150.986 211.112 149.55 210.255 147.727 210.255C145.478 210.255 143.889 211.5 143.889 213.31C143.889 214.833 144.848 215.814 146.958 216.261L148.115 216.503C149.528 216.811 150.085 217.323 150.085 218.144C150.085 219.088 149.125 219.777 147.785 219.777C146.562 219.777 145.603 219.315 145.273 218.327C145.112 217.931 144.87 217.763 144.497 217.763C144.05 217.763 143.757 218.07 143.757 218.546C143.757 218.722 143.793 218.898 143.845 219.059C144.255 220.29 145.661 221.176 147.712 221.176ZM153.491 219.154C153.491 220.429 154.15 221.066 155.446 221.066H155.527C156.303 221.066 156.669 220.824 156.669 220.348C156.669 219.975 156.442 219.792 155.988 219.748L155.864 219.74C155.292 219.696 155.08 219.418 155.08 218.803V214.547H155.981C156.391 214.547 156.64 214.313 156.64 213.925C156.64 213.537 156.391 213.295 155.981 213.295H155.08V212.152C155.08 211.647 154.765 211.31 154.289 211.31C153.806 211.31 153.491 211.647 153.491 212.152V213.295H152.934C152.524 213.295 152.275 213.529 152.275 213.925C152.275 214.313 152.524 214.547 152.934 214.547H153.491V219.154ZM159.987 221.132C160.991 221.132 161.972 220.59 162.419 219.733H162.456V220.385C162.47 220.854 162.771 221.139 163.21 221.139C163.657 221.139 163.972 220.839 163.972 220.341V215.69C163.972 214.145 162.778 213.156 160.91 213.156C159.526 213.156 158.361 213.712 157.958 214.584C157.863 214.76 157.819 214.936 157.819 215.097C157.819 215.492 158.105 215.756 158.5 215.756C158.779 215.756 158.984 215.653 159.145 215.419C159.584 214.716 160.09 214.445 160.852 214.445C161.818 214.445 162.397 214.958 162.397 215.814V216.408L160.28 216.532C158.457 216.635 157.417 217.462 157.417 218.81C157.417 220.194 158.479 221.132 159.987 221.132ZM160.419 219.879C159.577 219.879 159.013 219.44 159.013 218.766C159.013 218.107 159.548 217.689 160.493 217.624L162.397 217.506V218.114C162.397 219.118 161.525 219.879 160.419 219.879ZM168.74 223.9C171.032 223.922 172.431 222.692 172.431 220.788V213.969C172.431 213.456 172.094 213.156 171.64 213.156C171.186 213.156 170.842 213.456 170.842 213.969V214.591H170.812C170.344 213.72 169.494 213.17 168.403 213.17C166.411 213.17 165.166 214.672 165.166 217.082C165.166 219.462 166.425 220.978 168.366 220.978C169.465 220.978 170.373 220.429 170.805 219.594H170.842V220.817C170.842 221.894 170.058 222.626 168.769 222.611C168.015 222.597 167.473 222.311 166.843 221.652C166.63 221.439 166.477 221.359 166.235 221.359C165.832 221.359 165.561 221.623 165.561 221.989C165.561 222.172 165.605 222.333 165.708 222.509C166.235 223.344 167.341 223.886 168.74 223.9ZM168.791 219.689C167.575 219.689 166.784 218.7 166.784 217.089C166.784 215.485 167.575 214.474 168.791 214.474C170.029 214.474 170.849 215.514 170.849 217.096C170.849 218.678 170.029 219.689 168.791 219.689ZM177.331 221.146C178.767 221.146 179.887 220.568 180.393 219.557C180.458 219.403 180.502 219.257 180.502 219.132C180.502 218.737 180.224 218.488 179.843 218.488C179.616 218.488 179.455 218.568 179.287 218.766C178.701 219.564 178.159 219.865 177.294 219.865C176.035 219.865 175.244 218.986 175.244 217.58V217.543H179.902C180.393 217.543 180.686 217.25 180.686 216.737C180.686 214.635 179.272 213.156 177.221 213.156C175.039 213.156 173.647 214.738 173.647 217.184C173.647 219.674 175.009 221.146 177.331 221.146ZM175.251 216.437C175.332 215.236 176.123 214.43 177.214 214.43C178.312 214.43 179.067 215.229 179.104 216.437H175.251ZM185.747 221H191.584C192.031 221 192.309 220.722 192.309 220.312C192.309 219.894 192.031 219.616 191.584 219.616H187.197V219.579L189.716 217.052C191.496 215.272 192.06 214.423 192.06 213.222C192.06 211.479 190.632 210.233 188.61 210.233C186.508 210.233 185.285 211.53 185.058 212.643C185.029 212.753 185.014 212.863 185.014 212.987C185.014 213.397 185.278 213.683 185.739 213.683C186.142 213.683 186.333 213.485 186.479 213.156C186.845 212.123 187.563 211.588 188.603 211.588C189.665 211.588 190.441 212.321 190.441 213.324C190.441 214.167 190.104 214.708 188.728 216.115L185.424 219.455C185.065 219.813 184.97 219.989 184.97 220.312C184.97 220.722 185.249 221 185.747 221Z" fill="#4B5166"/>
<path d="M226 114.442C226 106.313 230.92 98.9933 238.446 95.9232L274.446 81.239C287.601 75.8731 302 85.5504 302 99.7577V199H226V114.442Z" fill="#5F46F5"/>
<path opacity="0.4" d="M244.014 221.176C246.482 221.176 248.05 219.923 248.05 217.931C248.05 216.393 247.142 215.507 244.922 215.038L243.772 214.796C242.403 214.503 241.854 213.991 241.854 213.222C241.854 212.255 242.769 211.654 244.007 211.654C245.062 211.654 245.867 212.072 246.226 213.046C246.395 213.427 246.636 213.61 247.032 213.61C247.457 213.61 247.757 213.332 247.757 212.907C247.757 212.753 247.735 212.628 247.698 212.526C247.288 211.112 245.853 210.255 244.029 210.255C241.78 210.255 240.191 211.5 240.191 213.31C240.191 214.833 241.15 215.814 243.26 216.261L244.417 216.503C245.831 216.811 246.387 217.323 246.387 218.144C246.387 219.088 245.428 219.777 244.087 219.777C242.864 219.777 241.905 219.315 241.575 218.327C241.414 217.931 241.172 217.763 240.799 217.763C240.352 217.763 240.059 218.07 240.059 218.546C240.059 218.722 240.096 218.898 240.147 219.059C240.557 220.29 241.963 221.176 244.014 221.176ZM249.793 219.154C249.793 220.429 250.452 221.066 251.749 221.066H251.829C252.605 221.066 252.972 220.824 252.972 220.348C252.972 219.975 252.745 219.792 252.291 219.748L252.166 219.74C251.595 219.696 251.382 219.418 251.382 218.803V214.547H252.283C252.693 214.547 252.942 214.313 252.942 213.925C252.942 213.537 252.693 213.295 252.283 213.295H251.382V212.152C251.382 211.647 251.067 211.31 250.591 211.31C250.108 211.31 249.793 211.647 249.793 212.152V213.295H249.236C248.826 213.295 248.577 213.529 248.577 213.925C248.577 214.313 248.826 214.547 249.236 214.547H249.793V219.154ZM256.29 221.132C257.293 221.132 258.274 220.59 258.721 219.733H258.758V220.385C258.772 220.854 259.073 221.139 259.512 221.139C259.959 221.139 260.274 220.839 260.274 220.341V215.69C260.274 214.145 259.08 213.156 257.212 213.156C255.828 213.156 254.664 213.712 254.261 214.584C254.166 214.76 254.122 214.936 254.122 215.097C254.122 215.492 254.407 215.756 254.803 215.756C255.081 215.756 255.286 215.653 255.447 215.419C255.887 214.716 256.392 214.445 257.154 214.445C258.121 214.445 258.699 214.958 258.699 215.814V216.408L256.583 216.532C254.759 216.635 253.719 217.462 253.719 218.81C253.719 220.194 254.781 221.132 256.29 221.132ZM256.722 219.879C255.879 219.879 255.315 219.44 255.315 218.766C255.315 218.107 255.85 217.689 256.795 217.624L258.699 217.506V218.114C258.699 219.118 257.828 219.879 256.722 219.879ZM265.042 223.9C267.334 223.922 268.733 222.692 268.733 220.788V213.969C268.733 213.456 268.396 213.156 267.942 213.156C267.488 213.156 267.144 213.456 267.144 213.969V214.591H267.115C266.646 213.72 265.796 213.17 264.705 213.17C262.713 213.17 261.468 214.672 261.468 217.082C261.468 219.462 262.728 220.978 264.668 220.978C265.767 220.978 266.675 220.429 267.107 219.594H267.144V220.817C267.144 221.894 266.36 222.626 265.071 222.611C264.317 222.597 263.775 222.311 263.145 221.652C262.933 221.439 262.779 221.359 262.537 221.359C262.134 221.359 261.863 221.623 261.863 221.989C261.863 222.172 261.907 222.333 262.01 222.509C262.537 223.344 263.643 223.886 265.042 223.9ZM265.093 219.689C263.877 219.689 263.086 218.7 263.086 217.089C263.086 215.485 263.877 214.474 265.093 214.474C266.331 214.474 267.151 215.514 267.151 217.096C267.151 218.678 266.331 219.689 265.093 219.689ZM273.633 221.146C275.069 221.146 276.189 220.568 276.695 219.557C276.761 219.403 276.805 219.257 276.805 219.132C276.805 218.737 276.526 218.488 276.146 218.488C275.918 218.488 275.757 218.568 275.589 218.766C275.003 219.564 274.461 219.865 273.597 219.865C272.337 219.865 271.546 218.986 271.546 217.58V217.543H276.204C276.695 217.543 276.988 217.25 276.988 216.737C276.988 214.635 275.574 213.156 273.523 213.156C271.341 213.156 269.949 214.738 269.949 217.184C269.949 219.674 271.312 221.146 273.633 221.146ZM271.553 216.437C271.634 215.236 272.425 214.43 273.516 214.43C274.615 214.43 275.369 215.229 275.406 216.437H271.553ZM284.993 221.198C287.198 221.198 288.824 219.931 288.824 218.07C288.824 216.591 287.784 215.646 286.231 215.507V215.47C287.527 215.199 288.458 214.306 288.458 212.987C288.458 211.413 287.132 210.233 284.979 210.233C283.367 210.233 282.217 210.937 281.69 211.984C281.551 212.255 281.492 212.497 281.492 212.782C281.492 213.222 281.741 213.485 282.203 213.485C282.591 213.485 282.767 213.332 282.942 212.907C283.309 212.028 283.909 211.581 284.979 211.581C286.231 211.581 286.861 212.233 286.861 213.214C286.861 214.196 286.041 214.914 284.832 214.914H284.173C283.755 214.914 283.492 215.17 283.492 215.551C283.492 215.932 283.755 216.188 284.173 216.188H284.876C286.29 216.188 287.161 216.862 287.154 218.07C287.146 219.096 286.282 219.828 285 219.828C283.792 219.828 283.104 219.323 282.745 218.48C282.576 218.1 282.371 217.938 282.02 217.938C281.558 217.938 281.28 218.224 281.28 218.664C281.28 218.927 281.346 219.184 281.492 219.455C282.078 220.524 283.257 221.198 284.993 221.198Z" fill="#4B5166"/>
<line x1="35.1602" y1="135.757" x2="109.16" y2="85.7571" stroke="#2EBEA1" stroke-width="3"/>
<circle cx="36" cy="137" r="10.5" fill="#2EBEA1" stroke="#F2F5FC" stroke-width="3"/>
<line x1="206.966" y1="70.1116" x2="300.112" y2="40.0335" stroke="#2EBEA1" stroke-width="3" stroke-linecap="round"/>
<line x1="109.753" y1="85.5204" x2="205.753" y2="69.5204" stroke="#2EBEA1" stroke-width="3"/>
<circle cx="110" cy="87" r="10.5" fill="#2EBEA1" stroke="#F2F5FC" stroke-width="3"/>
<circle cx="302" cy="41" r="10.5" fill="#2EBEA1" stroke="#F2F5FC" stroke-width="3"/>
<circle cx="206" cy="71" r="10.5" fill="#2EBEA1" stroke="#F2F5FC" stroke-width="3"/>
<path d="M268.613 20.856C269.021 20.832 269.309 20.616 269.501 20.16C270.485 16.44 271.397 13.872 272.477 11.64C272.813 10.896 272.957 10.128 272.117 9.888C271.757 9.744 271.373 9.888 271.133 10.248C270.125 12.456 269.645 13.584 269.141 15.096C268.925 15.864 268.421 16.176 268.253 15.624C268.061 14.976 267.485 13.08 267.173 12.336C266.717 11.376 266.405 10.8 265.589 10.752C264.509 10.752 263.789 13.896 263.237 15.792C262.757 17.472 262.253 19.224 262.613 19.944C262.805 20.328 263.069 20.472 263.453 20.448C263.933 20.424 264.221 20.088 264.293 19.416C264.341 18.432 265.133 14.496 265.781 14.496C266.069 14.496 266.165 14.808 266.309 15.36C266.597 16.608 266.933 17.808 267.269 19.032C267.533 20.112 267.797 20.904 268.613 20.856ZM274.501 20.304C274.813 20.304 277.453 20.04 277.837 19.848C278.197 19.656 278.389 19.296 278.317 18.96C278.101 17.856 277.189 18.432 275.677 18.432C275.245 18.432 275.053 18.216 275.077 17.832C275.125 17.52 275.173 17.184 275.245 16.896C275.365 16.464 275.533 16.344 276.013 16.32C277.213 16.2 278.389 16.416 278.341 15.288C278.245 14.448 277.549 14.544 276.517 14.448C276.181 14.4 276.037 14.16 276.133 13.872C276.229 13.488 276.349 13.128 276.445 12.72C276.565 12.24 276.829 12.168 277.285 12.216C278.605 12.432 280.309 12.528 280.141 11.424C280.069 10.44 278.317 10.416 276.709 10.416C275.773 10.368 275.293 10.752 274.861 11.88C274.621 12.456 273.733 15.504 273.517 16.488C273.349 17.28 273.181 18.072 273.181 18.888C273.181 19.776 273.613 20.232 274.501 20.304ZM280.574 20.112C280.958 20.28 281.342 20.208 281.702 19.896C281.846 19.752 282.014 19.536 283.862 17.424C284.462 16.8 284.774 16.872 284.918 17.712C285.038 18.456 285.158 19.176 285.422 19.848C285.782 20.736 286.766 20.856 287.342 20.064C287.702 19.584 291.302 12.336 291.518 11.592C291.662 11.184 291.446 10.728 291.086 10.536C290.078 10.104 289.622 11.496 288.614 13.608C287.75 15.456 287.198 16.656 286.79 16.584C286.334 16.512 286.406 15.192 286.094 14.64C285.758 13.992 285.134 13.824 284.534 14.184C284.174 14.376 283.598 15.024 283.31 15.264C283.094 15.432 282.806 15.264 282.806 15.024C282.806 14.52 283.214 12.552 283.358 11.712C283.526 10.992 283.166 10.392 282.542 10.368C282.086 10.368 281.75 10.728 281.606 11.448C281.39 12.552 280.622 16.848 280.19 18.36C279.926 19.272 280.07 19.872 280.574 20.112ZM303.893 20.4C304.925 20.712 305.069 19.44 306.101 16.536L307.661 12.264C307.925 11.568 307.781 11.016 307.301 10.8C306.893 10.632 306.461 10.776 306.197 11.208C306.053 11.448 305.933 11.688 304.973 14.184C304.709 14.952 304.661 15.264 304.085 15.288H302.741C302.189 15.264 302.021 15 302.189 14.496C302.501 13.632 303.029 12.144 303.053 11.88C303.101 11.496 302.909 11.136 302.573 10.992C302.213 10.872 301.853 10.968 301.589 11.256C301.133 11.76 298.757 18.768 298.709 19.416C298.661 19.848 298.901 20.184 299.261 20.304C299.669 20.424 300.077 20.304 300.269 19.968C300.389 19.776 300.629 19.104 301.109 17.592C301.253 17.208 301.517 17.04 301.877 17.064C302.237 17.064 302.621 17.088 302.981 17.112C303.845 17.16 303.941 17.304 303.677 18.144L303.389 18.984C303.173 19.728 303.365 20.232 303.893 20.4ZM314.171 20.856C314.603 20.928 314.987 20.688 315.107 20.256C315.371 19.296 316.115 12.648 315.995 11.664C315.875 10.824 315.107 10.464 314.339 10.92C313.475 11.448 311.411 14.184 310.571 15.6L308.555 18.96C308.075 19.704 308.099 20.232 308.555 20.52C308.867 20.736 309.275 20.736 309.587 20.52C309.779 20.352 310.355 19.464 310.811 18.744C311.003 18.456 311.171 18.336 311.435 18.336L312.971 18.408C313.283 18.432 313.475 18.696 313.451 19.008C313.451 20.04 313.355 20.736 314.171 20.856ZM313.187 16.608C312.779 16.608 312.587 16.584 312.491 16.368C312.251 15.936 313.307 14.4 313.787 14.616C314.003 14.688 314.003 14.88 313.835 16.08C313.787 16.44 313.523 16.608 313.187 16.608ZM319.284 20.592C320.844 20.592 322.164 19.968 323.412 18.624C323.988 18 324.42 16.608 323.892 15.792C323.46 15.144 323.484 14.688 324.012 14.088C324.78 13.248 324.708 12.264 323.772 11.52C322.644 10.632 321.324 10.368 319.788 10.728C319.284 10.848 318.924 11.184 318.732 11.76C318.324 12.816 317.604 16.536 317.244 18.576C317.076 19.776 317.844 20.592 319.284 20.592ZM320.172 14.016C319.908 13.56 320.22 13.008 320.388 12.648C320.58 12.144 322.236 12.336 322.356 12.888C322.476 13.512 320.532 14.472 320.172 14.016ZM319.692 18.768C318.996 18.768 319.092 18.36 319.188 17.664C319.212 17.28 319.26 16.848 319.548 16.56C319.836 16.296 320.028 16.296 321.444 16.296C322.356 16.296 322.572 16.872 322.02 17.472C321.564 18.096 320.412 18.744 319.692 18.768ZM325.764 17.304C325.38 18.408 324.828 19.752 325.86 20.016C326.772 20.328 327.036 19.128 327.684 17.256C328.236 15.648 328.86 14.136 329.22 12.48C329.436 11.52 329.268 10.992 328.692 10.872C328.308 10.776 327.9 11.016 327.684 11.472C327.492 11.976 326.604 15.168 325.764 17.304ZM333.31 20.472C333.814 20.736 334.366 20.424 334.654 19.728C335.326 17.952 336.022 15.336 336.598 12.984C336.838 12.096 336.91 12.024 337.846 12.024C338.326 12.024 339.118 12 339.694 11.952C340.15 11.904 340.462 11.52 340.462 11.112C340.462 10.536 340.006 10.248 339.07 10.248C334.39 10.224 333.142 10.272 331.462 10.608C330.838 10.704 330.406 11.256 330.574 11.736C330.694 12.144 330.934 12.336 331.222 12.336C331.798 12.336 333.166 12.096 334.462 12.096C334.726 12.096 334.822 12.288 334.822 12.504C334.822 13.296 333.598 17.472 332.998 19.056C332.71 19.776 332.806 20.208 333.31 20.472Z" fill="#2EBEA1"/>
</svg>
